<svg xmlns="http://www.w3.org/2000/svg" xmlns:xlink="http://www.w3.org/1999/xlink" version="1.1" width="256" height="256" viewBox="0 0 256 256" xml:space="preserve">
<g style="stroke: none; stroke-width: 0; stroke-dasharray: none; stroke-linecap: butt; stroke-linejoin: miter; stroke-miterlimit: 10; fill: none; fill-rule: nonzero; opacity: 1;" transform="translate(1.4065934065934016 1.4065934065934016) scale(2.81 2.81)">
	<path d="M 64.677 3.133 H 16.433 c -0.021 0 -0.038 0.01 -0.058 0.012 c -0.093 0.005 -0.183 0.024 -0.271 0.055 c -0.03 0.011 -0.06 0.018 -0.089 0.032 c -0.104 0.048 -0.203 0.109 -0.287 0.194 c -0.001 0.001 -0.001 0.001 -0.002 0.001 L 0.293 18.859 c -0.092 0.092 -0.165 0.203 -0.216 0.325 C 0.027 19.306 0 19.436 0 19.566 v 66.301 c 0 0.553 0.448 1 1 1 h 63.677 c 0.553 0 1 -0.447 1 -1 V 4.133 C 65.677 3.581 65.229 3.133 64.677 3.133 z M 15.433 18.566 H 3.414 L 15.433 6.547 V 18.566 z M 63.677 84.867 H 2 V 20.566 h 14.433 c 0.552 0 1 -0.448 1 -1 V 5.133 h 46.244 V 84.867 z" style="stroke: none; stroke-width: 1; stroke-dasharray: none; stroke-linecap: butt; stroke-linejoin: miter; stroke-miterlimit: 10; fill: rgb(0,0,0); fill-rule: nonzero; opacity: 1;" transform=" matrix(1 0 0 1 0 0) " stroke-linecap="round"/>
	<path d="M 53.224 38.298 h -40.77 c -0.552 0 -1 0.448 -1 1 s 0.448 1 1 1 h 40.77 c 0.553 0 1 -0.448 1 -1 S 53.776 38.298 53.224 38.298 z" style="stroke: none; stroke-width: 1; stroke-dasharray: none; stroke-linecap: butt; stroke-linejoin: miter; stroke-miterlimit: 10; fill: rgb(0,0,0); fill-rule: nonzero; opacity: 1;" transform=" matrix(1 0 0 1 0 0) " stroke-linecap="round"/>
	<path d="M 53.224 54.454 h -40.77 c -0.552 0 -1 0.447 -1 1 s 0.448 1 1 1 h 40.77 c 0.553 0 1 -0.447 1 -1 S 53.776 54.454 53.224 54.454 z" style="stroke: none; stroke-width: 1; stroke-dasharray: none; stroke-linecap: butt; stroke-linejoin: miter; stroke-miterlimit: 10; fill: rgb(0,0,0); fill-rule: nonzero; opacity: 1;" transform=" matrix(1 0 0 1 0 0) " stroke-linecap="round"/>
	<path d="M 53.224 70.61 h -40.77 c -0.552 0 -1 0.447 -1 1 s 0.448 1 1 1 h 40.77 c 0.553 0 1 -0.447 1 -1 S 53.776 70.61 53.224 70.61 z" style="stroke: none; stroke-width: 1; stroke-dasharray: none; stroke-linecap: butt; stroke-linejoin: miter; stroke-miterlimit: 10; fill: rgb(0,0,0); fill-rule: nonzero; opacity: 1;" transform=" matrix(1 0 0 1 0 0) " stroke-linecap="round"/>
	<path d="M 32.412 24.141 h 20.812 c 0.553 0 1 -0.448 1 -1 s -0.447 -1 -1 -1 H 32.412 c -0.552 0 -1 0.448 -1 1 S 31.859 24.141 32.412 24.141 z" style="stroke: none; stroke-width: 1; stroke-dasharray: none; stroke-linecap: butt; stroke-linejoin: miter; stroke-miterlimit: 10; fill: rgb(0,0,0); fill-rule: nonzero; opacity: 1;" transform=" matrix(1 0 0 1 0 0) " stroke-linecap="round"/>
	<path d="M 86.956 11.55 h -9.405 c -1.678 0 -3.043 1.365 -3.043 3.043 v 11.449 v 48.042 c 0 0.031 0.009 0.061 0.012 0.091 c 0.005 0.055 0.007 0.111 0.022 0.165 c 0.022 0.084 0.055 0.165 0.098 0.241 l 6.746 11.782 c 0.179 0.311 0.51 0.503 0.868 0.503 s 0.689 -0.192 0.868 -0.503 l 6.746 -11.782 c 0.043 -0.076 0.076 -0.157 0.098 -0.241 c 0.014 -0.054 0.016 -0.11 0.022 -0.165 C 89.991 74.146 90 74.116 90 74.085 V 26.042 V 14.593 C 90 12.915 88.635 11.55 86.956 11.55 z M 76.508 14.593 c 0 -0.575 0.468 -1.043 1.043 -1.043 h 9.405 c 0.575 0 1.044 0.468 1.044 1.043 v 10.449 H 76.508 V 14.593 z M 88 27.042 v 46.042 H 76.508 V 27.042 H 88 z M 77.232 75.085 h 10.043 l -5.021 8.77 L 77.232 75.085 z" style="stroke: none; stroke-width: 1; stroke-dasharray: none; stroke-linecap: butt; stroke-linejoin: miter; stroke-miterlimit: 10; fill: rgb(0,0,0); fill-rule: nonzero; opacity: 1;" transform=" matrix(1 0 0 1 0 0) " stroke-linecap="round"/>
</g>
</svg>